<?xml version="1.0" encoding="utf-8"?>
<!-- Generator: Adobe Illustrator 23.0.2, SVG Export Plug-In . SVG Version: 6.00 Build 0)  -->
<svg version="1.1" id="Layer_1" xmlns="http://www.w3.org/2000/svg" xmlns:xlink="http://www.w3.org/1999/xlink" x="0px" y="0px"
	 viewBox="0 0 10 14" style="enable-background:new 0 0 10 14;" xml:space="preserve">
<style type="text/css">
	.st0{fill-rule:evenodd;clip-rule:evenodd;fill:#846A3A;}
</style>
<path class="st0" d="M9,8L9,8l-4,6L1,8h0C0.4,7.2,0,6.1,0,5c0-2.8,2.2-5,5-5c2.8,0,5,2.2,5,5C10,6.1,9.6,7.2,9,8L9,8z M5,3
	C3.9,3,3,3.9,3,5c0,1.1,0.9,2,2,2c1.1,0,2-0.9,2-2C7,3.9,6.1,3,5,3L5,3z"/>
</svg>
