<?xml version="1.0" encoding="utf-8"?>
<!-- Generator: Adobe Illustrator 23.0.2, SVG Export Plug-In . SVG Version: 6.00 Build 0)  -->
<svg version="1.1" id="Layer_1" xmlns="http://www.w3.org/2000/svg" xmlns:xlink="http://www.w3.org/1999/xlink" x="0px" y="0px"
	 viewBox="0 0 46 39.4" style="enable-background:new 0 0 46 39.4;" xml:space="preserve">
<style type="text/css">
	.st0{fill:#FFFFFF;}
</style>
<path class="st0" d="M45.4,9L46,7h-2.1H15v2h28.3l-4.8,16H13.9l1.1,1.3L8,0H0v2h6.5l7.6,28.5l0.3,0.9c-0.8,0.8-1.3,2-1.3,3.2
	c0,2.6,2.1,4.7,4.8,4.7c2.6,0,4.7-2.1,4.7-4.7c0-1-0.3-1.9-0.9-2.7h11.2c-0.5,0.8-0.9,1.7-0.9,2.7c0,2.6,2.1,4.7,4.8,4.7
	c2.6,0,4.8-2.1,4.8-4.7c0-2.5-2-4.5-4.5-4.7v0H16l-0.8-3H40L45.4,9z M20.5,34.7c0,1.5-1.2,2.7-2.7,2.7c-1.5,0-2.8-1.2-2.8-2.7
	c0-1.5,1.2-2.7,2.8-2.7C19.3,32,20.5,33.2,20.5,34.7z M39.5,34.7c0,1.5-1.2,2.7-2.7,2.7S34,36.2,34,34.7c0-1.5,1.2-2.7,2.8-2.7
	S39.5,33.2,39.5,34.7z"/>
</svg>
