<?xml version="1.0" encoding="utf-8"?>
<!-- Generator: Adobe Illustrator 23.0.2, SVG Export Plug-In . SVG Version: 6.00 Build 0)  -->
<svg version="1.1" id="Layer_1" xmlns="http://www.w3.org/2000/svg" xmlns:xlink="http://www.w3.org/1999/xlink" x="0px" y="0px"
	 viewBox="0 0 13.8 13.8" style="enable-background:new 0 0 13.8 13.8;" xml:space="preserve">
<style type="text/css">
	.st0{fill:#856B3B;}
</style>
<path class="st0" d="M13.5,12.2c-0.2,0.5-0.8,0.8-1.2,1c-0.6,0.3-1.2,0.5-1.8,0.5c-0.9,0-1.7-0.4-2.6-0.7c-0.6-0.2-1.2-0.5-1.7-0.8
	c-1.7-1-3.7-3-4.7-4.7C1.2,7.1,0.9,6.5,0.7,5.9C0.4,5,0,4.2,0,3.3c0-0.7,0.2-1.2,0.5-1.8c0.2-0.4,0.6-1,1-1.2C1.9,0.2,2.5,0,2.9,0
	C3,0,3,0,3.1,0c0.2,0.1,0.4,0.5,0.5,0.7c0.3,0.6,0.6,1.1,0.9,1.7C4.7,2.7,5,3,5,3.3c0,0.6-1.8,1.5-1.8,2c0,0.3,0.2,0.6,0.4,0.8
	c1,1.8,2.2,3,4,4c0.2,0.1,0.6,0.4,0.8,0.4c0.5,0,1.4-1.8,2-1.8c0.3,0,0.6,0.3,0.9,0.5c0.5,0.3,1.1,0.6,1.7,0.9
	c0.2,0.1,0.7,0.3,0.7,0.5c0,0.1,0,0.1,0,0.2C13.8,11.2,13.6,11.9,13.5,12.2L13.5,12.2z"/>
</svg>
