<?xml version="1.0" encoding="utf-8"?>
<!-- Generator: Adobe Illustrator 23.0.2, SVG Export Plug-In . SVG Version: 6.00 Build 0)  -->
<svg version="1.1" id="Layer_1" xmlns="http://www.w3.org/2000/svg" xmlns:xlink="http://www.w3.org/1999/xlink" x="0px" y="0px"
	 viewBox="0 0 64 75" style="enable-background:new 0 0 64 75;" xml:space="preserve">
<style type="text/css">
	.st0{fill:#846A3A;}
</style>
<g>
	<path class="st0" d="M32,72.8c6.3-3.1,14.1-7.5,20.7-13.3C59.5,53.4,62,44.9,62,39V9.9C53.5,2.2,34.6,2,32.4,2L32,2l-0.4,0
		C29.4,2,10.5,2.2,2,9.9V39c0,5.9,2.4,14.4,9.3,20.5C17.9,65.3,25.7,69.6,32,72.8 M32,75c-5.5-2.7-14.5-7.4-22-14
		C2.5,54.4,0,45.3,0,39C0,32.7,0,9,0,9c8.6-8.6,28.4-9,31.6-9C31.8,0,32,0,32,0s0.2,0,0.4,0C35.6,0,55.4,0.4,64,9c0,0,0,23.7,0,30
		c0,6.3-2.5,15.4-10,22C46.5,67.6,37.5,72.3,32,75L32,75L32,75z"/>
	<path class="st0" d="M49,35h2c0,10.5-8.5,19-19,19c-10.5,0-19-8.5-19-19c0-10.5,8.5-19,19-19c3.5,0,6.8,1,9.6,2.6l-1,1.7
		C38,18.8,35,18,32,18c-9.4,0-17,7.6-17,17c0,9.4,7.6,17,17,17C41.4,52,49,44.4,49,35"/>
	<path class="st0" d="M24.4,32.6l8,8L31,42l-8-8L24.4,32.6L24.4,32.6L24.4,32.6z M29.6,40.5l17-16L48,26L31,42L29.6,40.5L29.6,40.5
		L29.6,40.5z M31,42l-1.4-1.5L31,42L31,42L31,42L31,42z M31,42l1.4-1.4L31,42L31,42L31,42z"/>
</g>
</svg>
