<?xml version="1.0" encoding="utf-8"?>
<!-- Generator: Adobe Illustrator 23.0.2, SVG Export Plug-In . SVG Version: 6.00 Build 0)  -->
<svg version="1.1" id="Layer_1" xmlns="http://www.w3.org/2000/svg" xmlns:xlink="http://www.w3.org/1999/xlink" x="0px" y="0px"
	 viewBox="0 0 76.3 65.7" style="enable-background:new 0 0 76.3 65.7;" xml:space="preserve">
<style type="text/css">
	.st0{fill:#846A3A;}
</style>
<g>
	<path class="st0" d="M51.1,63.7c1,0,2.1-0.1,3.2-0.3c6.2-0.9,9.9-4.9,11.5-7.2c-1.5-0.6-3.9-1.4-7-1.4c-1.5,0-3.1,0.2-4.7,0.5
		c-6.2,1.4-8.4,4.9-9.2,6.6C45.7,62.7,47.6,63.7,51.1,63.7L51.1,63.7 M25.1,63.7c3.6,0,5.4-1.1,6.2-1.7c-0.7-1.7-3-5.2-9.2-6.6
		c-1.6-0.4-3.2-0.5-4.7-0.5c-3.1,0-5.5,0.7-7,1.4c1.6,2.3,5.3,6.3,11.5,7.2C23.1,63.6,24.1,63.7,25.1,63.7 M60.4,46.9
		c1.9,0,4.2-0.8,6.6-2.2c4.7-2.8,6.4-7.1,7-9.6c-2.3,0-5.9,0.6-9.7,3.3c-4.5,3.2-5.2,6.7-5.3,8.3C59.3,46.8,59.8,46.9,60.4,46.9
		L60.4,46.9 M15.9,46.9L15.9,46.9c0.6,0,1.1-0.1,1.5-0.2c-0.1-1.7-0.8-5.2-5.3-8.3c-3.8-2.7-7.4-3.3-9.7-3.3c0.6,2.5,2.3,6.8,7,9.6
		C11.7,46.1,14,46.9,15.9,46.9 M58.9,33.5c1.2-0.1,3.8-0.9,6.9-4.7c3.4-4.3,3.4-8.9,3.1-11.5c-2,0.7-5.2,2.5-8,6.5
		C57.9,28.4,58.4,31.9,58.9,33.5 M17.3,33.5c0.5-1.6,1-5.1-2-9.7c-2.7-4-6-5.8-8-6.5c-0.3,2.5-0.3,7.2,3.1,11.5
		C13.5,32.6,16.1,33.4,17.3,33.5 M54.4,20.7c0.9-0.7,2.5-2.6,3-7.1c0.6-5-1.6-8.7-3.1-10.6c-1.2,1.6-2.9,4.6-3,9.1
		C51.1,17.1,53.2,19.7,54.4,20.7 M21.8,20.7c1.2-1,3.3-3.6,3.1-8.7c-0.2-4.5-1.8-7.5-3-9.1c-1.5,1.9-3.7,5.6-3.2,10.6
		C19.3,18.1,20.9,20,21.8,20.7 M51.1,65.7c-6.6,0-8.5-3.3-8.5-3.3c0,0,1.4-6.8,11-9c1.9-0.4,3.6-0.6,5.2-0.6c6.1,0,9.8,2.6,9.8,2.6
		s-4.1,8.5-14,10C53.3,65.6,52.2,65.7,51.1,65.7L51.1,65.7L51.1,65.7z M25.1,65.7C25.1,65.7,25.1,65.7,25.1,65.7
		c-1,0-2.2-0.1-3.5-0.3c-9.9-1.5-14-10-14-10s3.7-2.6,9.8-2.6c1.6,0,3.3,0.2,5.2,0.6c9.6,2.2,11,9,11,9l0,0l0,0
		C33.6,62.4,31.7,65.7,25.1,65.7L25.1,65.7L25.1,65.7z M42.6,62.5L42.6,62.5L42.6,62.5L42.6,62.5L42.6,62.5z M60.4,48.9
		C58.1,48.9,57,48,57,48s-1.1-6.2,6.1-11.3c4.4-3.1,8.5-3.7,11-3.7c1.4,0,2.2,0.2,2.2,0.2s-0.5,8.5-8.3,13.2
		C64.8,48.3,62.2,48.9,60.4,48.9L60.4,48.9L60.4,48.9z M15.9,48.9C15.9,48.9,15.9,48.9,15.9,48.9c-1.8,0-4.4-0.5-7.6-2.5
		C0.5,41.8,0,33.2,0,33.2s0.8-0.2,2.2-0.2c2.4,0,6.6,0.6,11,3.7c7.2,5.1,6.1,11.3,6.1,11.3S18.2,48.9,15.9,48.9L15.9,48.9L15.9,48.9
		z M57,48L57,48L57,48L57,48L57,48z M19.3,48L19.3,48L19.3,48L19.3,48L19.3,48z M58.6,35.5c-0.6,0-1-0.1-1-0.1c0,0-3.2-5.4,1.7-12.7
		c4.8-7,11.1-7.9,11.1-7.9S73,22.9,67.4,30C63.5,34.8,60.2,35.5,58.6,35.5L58.6,35.5L58.6,35.5z M17.7,35.5L17.7,35.5
		c-1.6,0-5-0.7-8.8-5.5c-5.6-7.1-3.1-15.2-3.1-15.2s6.4,0.9,11.1,7.9c5,7.3,1.7,12.7,1.7,12.7S18.3,35.5,17.7,35.5L17.7,35.5
		L17.7,35.5z M57.6,35.4L57.6,35.4L57.6,35.4L57.6,35.4L57.6,35.4z M18.7,35.4L18.7,35.4L18.7,35.4L18.7,35.4L18.7,35.4z M54.3,23.1
		L54.3,23.1L54.3,23.1L54.3,23.1L54.3,23.1z M22,23.1L22,23.1L22,23.1L22,23.1L22,23.1z M54.3,23.1c0,0-5.3-2.7-5-11.1
		c0.3-8,5-12,5-12s6.1,5.3,5.2,13.8C58.5,21.9,54.3,23.1,54.3,23.1L54.3,23.1L54.3,23.1z M22,23.1c0,0-4.2-1.2-5.2-9.3
		C15.8,5.3,22,0,22,0s4.7,3.9,5,12C27.3,20.4,22,23.1,22,23.1L22,23.1L22,23.1z"/>
</g>
</svg>
