<?xml version="1.0" encoding="utf-8"?>
<!-- Generator: Adobe Illustrator 23.0.2, SVG Export Plug-In . SVG Version: 6.00 Build 0)  -->
<svg version="1.1" id="Layer_1" xmlns="http://www.w3.org/2000/svg" xmlns:xlink="http://www.w3.org/1999/xlink" x="0px" y="0px"
	 viewBox="0 0 81.9 72" style="enable-background:new 0 0 81.9 72;" xml:space="preserve">
<style type="text/css">
	.st0{fill:#846A3A;}
</style>
<g>
	<path class="st0" d="M13.4,50.5L12,49c0,0,11-10.6,15-14c4-3.4,8.1-3.9,11-2c2.9,1.9,2,7.5,0,11c-2,3.5-19,28-19,28l-1.6-1.1
		c0.2-0.2,16.9-24.5,18.9-27.9c1.9-3.2,2.2-7.3,0.6-8.3c-2.3-1.5-5.4-0.8-8.6,1.9C24.4,39.8,13.5,50.3,13.4,50.5L13.4,50.5"/>
	<path class="st0" d="M2,71l-2,0c0,0,0.1-26.8,0-29c-0.1-2.2,0.4-3.6,2-5c1.6-1.4,15-12,15-12l1.2,1.6C13.6,30.2,4.6,37.4,3.3,38.5
		c-1.1,1-1.4,1.8-1.3,3.4C2.1,44.2,2,69.9,2,71L2,71"/>
	<path class="st0" d="M22.4,32.6L21,34c-0.2-0.2-7.8-7.6-7-17C14.8,7.5,24,0.2,32,0c8.1-0.2,16,4.8,18,12c0.2-0.2,11.9-11.1,25-2
		c4.9,3.4,6.8,7.8,6.9,12.3C82,29.5,77.4,36.7,73,40c-6.5,4.8-32,22-32,22l-1.1-1.7c0.3-0.2,25.5-17.2,31.9-21.9
		c4-3,8.2-9.6,8.1-16.1c-0.1-4.4-2.1-7.9-6.1-10.7c-11.7-8.1-22.1,1.4-22.5,1.8L49,15.7l-0.9-3.2C46.3,6.3,39.4,1.8,32.1,2
		c-7,0.2-15.3,6.7-16.1,15.2C15.3,25.6,22.3,32.5,22.4,32.6L22.4,32.6 M42.6,60.8L41,62l-5-7l1.6-1.2L42.6,60.8 M41,62l1.6-1.2
		L41,62L41,62L41,62z M41,62l-1.1-1.7L41,62L41,62L41,62z"/>
</g>
</svg>
