<?xml version="1.0" encoding="utf-8"?>
<!-- Generator: Adobe Illustrator 23.0.2, SVG Export Plug-In . SVG Version: 6.00 Build 0)  -->
<svg version="1.1" id="Layer_1" xmlns="http://www.w3.org/2000/svg" xmlns:xlink="http://www.w3.org/1999/xlink" x="0px" y="0px"
	 viewBox="0 0 52 25" style="enable-background:new 0 0 52 25;" xml:space="preserve">
<style type="text/css">
	.st0{fill-rule:evenodd;clip-rule:evenodd;fill:#687951;}
</style>
<g>
	<path class="st0" d="M0,25v-2h52v2H0L0,25z M47,21c-1.2,0-46,0-46,0v-4C1,17,26,3.2,27.8,2.3c1.7-0.9,3.8-2.2,6.8-2.2
		c3.1,0,7.3-0.8,10.9,2.9c4.9,5,4.9,13.5,4.6,15.3C49.8,20,48.2,21,47,21L47,21z M8.3,14.9c-2,1-3.4,1.7-3.4,1.7V18
		c0,0,1.5-0.4,3.4-0.9V14.9L8.3,14.9z M13.4,12.3c-1.2,0.6-2.5,1.2-3.7,1.8v2.5c1.2-0.3,2.5-0.7,3.7-1V12.3L13.4,12.3z M19.3,9.5
		c-0.3,0.1-2.2,1-4.4,2.1v3.7c1.5-0.4,2.7-0.8,3.2-0.9c1.6-0.5,2.7-1.4,2.7-2.7C20.7,10.4,20.3,9.2,19.3,9.5L19.3,9.5z M35.8,17.3
		c0.7,0,1.2-0.5,1.2-1.2c0-0.7-0.5-1.2-1.2-1.2c-0.7,0-1.2,0.5-1.2,1.2C34.6,16.8,35.1,17.3,35.8,17.3L35.8,17.3z M46.2,7.1
		c-0.8-1.3-1.9-2.7-4.4-2.7c-2.5,0-4.6,0-5.8,0c-1.2,0-2.1,0.5-2.4,2.2c-0.3,1.7,0.7,2.7,1.9,2.7c0,0,8.1,0,9.2,0
		C45.9,9.3,47,8.5,46.2,7.1L46.2,7.1z M46.9,14.9c-0.7,0-1.2,0.5-1.2,1.2c0,0.7,0.5,1.2,1.2,1.2c0.7,0,1.2-0.5,1.2-1.2
		C48.2,15.4,47.6,14.9,46.9,14.9L46.9,14.9z"/>
</g>
</svg>
