<?xml version="1.0" encoding="utf-8"?>
<!-- Generator: Adobe Illustrator 23.0.2, SVG Export Plug-In . SVG Version: 6.00 Build 0)  -->
<svg version="1.1" id="Layer_1" xmlns="http://www.w3.org/2000/svg" xmlns:xlink="http://www.w3.org/1999/xlink" x="0px" y="0px"
	 viewBox="0 0 52.9 29.8" style="enable-background:new 0 0 52.9 29.8;" xml:space="preserve">
<style type="text/css">
	.st0{fill:#687951;}
	.st1{fill-rule:evenodd;clip-rule:evenodd;fill:#687951;}
</style>
<g>
	<path class="st0" d="M1.4,29.8L1.4,29.8c0,0,3.2-3,9.5-3c6.3-0.1,7.1,2.9,13.1,2.9c6.1-0.1,7.9-3.6,14.2-3.5
		c6.4,0,7.4,2.6,12.1,2.7v-2c-3.5,0.1-5-2.6-12.1-2.7c-7.2,0.1-9.3,3.6-14.2,3.5c-5,0.1-6-2.9-13.1-2.9c-7,0-10.8,3.4-10.9,3.5l0,0
		L1.4,29.8L1.4,29.8L1.4,29.8z"/>
	<path class="st1" d="M5.8,10.8c0.1-0.9,0.5-0.9,1.1-1.1c0.6-0.2,1.3-0.3,1.3-0.3l0.3-1.9l2.2-0.4V1.6c0,0,0.8-0.8,1.6-0.8
		c0.7,0,1.6,0.8,1.6,0.8v4.9L16.2,6l0-5.2c0,0,0.8-0.8,1.6-0.8c0.7,0,1.6,0.8,1.6,0.8v4.6L36.6,2l1.9,3c0,0,0.9-0.4,1.6-0.5
		c0.7-0.2,1,0.4,1.3,1.1c0.3,0.7,5.1,9.9,5.1,9.9l-41.7,0C4.9,15.4,5.7,11.8,5.8,10.8L5.8,10.8z M18.1,13l18.8-2.1l-0.8-2.7l-18,2.4
		V13L18.1,13z M47.6,23.1c0,0-0.5,0.5-0.7,0.4c-2.1-0.9-4.2-2-8.7-2c-6.7,0-8.7,3.5-14.2,3.5c-5.5,0-6.5-2.9-13.1-2.9
		c-3.1,0-5.5,0.6-7.2,1.3c0,0-0.3-0.8-0.3-0.8l-1.5-5.2h51L47.6,23.1L47.6,23.1z"/>
</g>
</svg>
