<?xml version="1.0" encoding="utf-8"?>
<!-- Generator: Adobe Illustrator 23.0.2, SVG Export Plug-In . SVG Version: 6.00 Build 0)  -->
<svg version="1.1" id="Layer_1" xmlns="http://www.w3.org/2000/svg" xmlns:xlink="http://www.w3.org/1999/xlink" x="0px" y="0px"
	 viewBox="0 0 51.7 20.3" style="enable-background:new 0 0 51.7 20.3;" xml:space="preserve">
<style type="text/css">
	.st0{fill-rule:evenodd;clip-rule:evenodd;fill:#6B7C53;}
</style>
<path class="st0" d="M48.9,17.5c-0.1,0-0.8,0-1.9,0c-0.8,1.7-2.5,2.8-4.4,2.8c-2,0-3.9-1.3-4.2-3.2c-7.7,0-17.9,0-24.8,0
	c-0.8,1.7-2.6,3.2-4.5,3.2c-2,0-3.7-1.2-4.5-2.9C1.2,16.9,0,13.5,0,11.2C0,8.6,2.4,7,4.2,7C6,7,6.3,7,6.3,7c3.8-5.8,12.5-7,14-7
	c0.1,0,0.2,0,0.2,0c0,0,0,0,0.1,0c0.3,0,1.4,0,4.5,0c7.4,0,14,7,14,7s4.6,0.2,8.4,1.4c3.8,1.2,4.2,4.3,4.2,6.3
	C51.7,16.7,50.2,17.5,48.9,17.5L48.9,17.5z M9.1,14C7.9,14,7,14.9,7,16.1c0,1.2,0.9,2.1,2.1,2.1c1.2,0,2.1-0.9,2.1-2.1
	C11.2,14.9,10.3,14,9.1,14L9.1,14z M21.7,2.8c-0.4,0-0.9,0-1.4,0c-2.9,0.1-6.6,2-9.1,4.7h10.5V2.8L21.7,2.8z M25.2,2.8
	c-0.4,0-0.8,0-1.2,0v4.7h9.6C33.6,7.5,29.1,2.8,25.2,2.8L25.2,2.8z M42.6,14c-1.2,0-2.1,0.9-2.1,2.1s0.9,2.1,2.1,2.1
	s2.1-0.9,2.1-2.1S43.8,14,42.6,14L42.6,14z"/>
</svg>
