<?xml version="1.0" encoding="utf-8"?>
<!-- Generator: Adobe Illustrator 23.0.2, SVG Export Plug-In . SVG Version: 6.00 Build 0)  -->
<svg version="1.1" id="Layer_1" xmlns="http://www.w3.org/2000/svg" xmlns:xlink="http://www.w3.org/1999/xlink" x="0px" y="0px"
	 viewBox="0 0 36.5 36.3" style="enable-background:new 0 0 36.5 36.3;" xml:space="preserve">
<style type="text/css">
	.st0{fill:#6B7C53;}
</style>
<path class="st0" d="M34.5,5.8c-3.4,4-5.9,6.7-5.9,6.7s1.6,14.5,1.7,16.6c0.1,2.1-1.4,3.9-3.8,4.2l-5.3-14.1L11.6,28
	c0,0,1.3,3.3,1.7,4.4c0.5,1.1,0.4,1.9-0.6,2.9c-0.9,0.9-1.7,1.3-1.7,1.3l-3.4-7.6L36,0.5C36,0.5,37.9,1.9,34.5,5.8L34.5,5.8z
	 M31.6,18.2L28,21.9c-0.3,0.3-0.8,0.3-1.1,0l-1.3-1.3c-0.3-0.3-0.3-0.8,0-1.1l3.6-3.6c0.3-0.3,0.8-0.3,1.1,0l1.3,1.3
	C31.9,17.4,31.9,17.9,31.6,18.2L31.6,18.2z M32.2,25.3l-3.6,3.6c-0.3,0.3-0.8,0.3-1.1,0l-1.3-1.3c-0.3-0.3-0.3-0.8,0-1.1l3.6-3.6
	c0.3-0.3,0.8-0.3,1.1,0l1.3,1.3C32.5,24.5,32.5,25,32.2,25.3L32.2,25.3z M7.6,28.9L0,25.5c0,0,0.4-0.8,1.3-1.7
	c0.9-0.9,1.7-1,2.9-0.6c1.1,0.5,4.4,1.7,4.4,1.7l8.8-9.5L3.2,10c0.3-2.4,2.1-3.9,4.2-3.8C9.5,6.3,24,7.9,24,7.9s2.7-2.5,6.7-5.9
	c4-3.4,5.3-1.5,5.3-1.5L7.6,28.9L7.6,28.9z M20.8,7.4L17.1,11c-0.3,0.3-0.8,0.3-1.1,0l-1.3-1.3c-0.3-0.3-0.3-0.8,0-1.1l3.6-3.6
	c0.3-0.3,0.8-0.3,1.1,0l1.3,1.3C21.1,6.5,21.1,7.1,20.8,7.4L20.8,7.4z M10.1,10.4c-0.3,0.3-0.8,0.3-1.1,0L7.6,9.1
	c-0.3-0.3-0.3-0.8,0-1.1l3.6-3.6c0.3-0.3,0.8-0.3,1.1,0l1.3,1.3C14,6,14,6.5,13.7,6.8L10.1,10.4L10.1,10.4z"/>
</svg>
